<?xml version="1.0" encoding="UTF-8"?>
<!DOCTYPE svg PUBLIC "-//W3C//DTD SVG 1.1//EN" "http://www.w3.org/Graphics/SVG/1.1/DTD/svg11.dtd">
<svg xmlns="http://www.w3.org/2000/svg" version="1.1" viewBox="0 0 35 35" stroke="none">
	<rect width="100%" height="100%" fill="#FFFFFF"/>
	<path d="M1,1h1v1h-1z M2,1h1v1h-1z M3,1h1v1h-1z M4,1h1v1h-1z M5,1h1v1h-1z M6,1h1v1h-1z M7,1h1v1h-1z M10,1h1v1h-1z M14,1h1v1h-1z M15,1h1v1h-1z M16,1h1v1h-1z M17,1h1v1h-1z M20,1h1v1h-1z M21,1h1v1h-1z M22,1h1v1h-1z M23,1h1v1h-1z M24,1h1v1h-1z M27,1h1v1h-1z M28,1h1v1h-1z M29,1h1v1h-1z M30,1h1v1h-1z M31,1h1v1h-1z M32,1h1v1h-1z M33,1h1v1h-1z M1,2h1v1h-1z M7,2h1v1h-1z M9,2h1v1h-1z M10,2h1v1h-1z M12,2h1v1h-1z M13,2h1v1h-1z M14,2h1v1h-1z M15,2h1v1h-1z M16,2h1v1h-1z M17,2h1v1h-1z M18,2h1v1h-1z M19,2h1v1h-1z M21,2h1v1h-1z M22,2h1v1h-1z M23,2h1v1h-1z M25,2h1v1h-1z M27,2h1v1h-1z M33,2h1v1h-1z M1,3h1v1h-1z M3,3h1v1h-1z M4,3h1v1h-1z M5,3h1v1h-1z M7,3h1v1h-1z M10,3h1v1h-1z M11,3h1v1h-1z M12,3h1v1h-1z M15,3h1v1h-1z M16,3h1v1h-1z M17,3h1v1h-1z M20,3h1v1h-1z M21,3h1v1h-1z M22,3h1v1h-1z M23,3h1v1h-1z M27,3h1v1h-1z M29,3h1v1h-1z M30,3h1v1h-1z M31,3h1v1h-1z M33,3h1v1h-1z M1,4h1v1h-1z M3,4h1v1h-1z M4,4h1v1h-1z M5,4h1v1h-1z M7,4h1v1h-1z M9,4h1v1h-1z M10,4h1v1h-1z M12,4h1v1h-1z M14,4h1v1h-1z M15,4h1v1h-1z M18,4h1v1h-1z M20,4h1v1h-1z M21,4h1v1h-1z M23,4h1v1h-1z M24,4h1v1h-1z M25,4h1v1h-1z M27,4h1v1h-1z M29,4h1v1h-1z M30,4h1v1h-1z M31,4h1v1h-1z M33,4h1v1h-1z M1,5h1v1h-1z M3,5h1v1h-1z M4,5h1v1h-1z M5,5h1v1h-1z M7,5h1v1h-1z M11,5h1v1h-1z M13,5h1v1h-1z M14,5h1v1h-1z M17,5h1v1h-1z M18,5h1v1h-1z M19,5h1v1h-1z M21,5h1v1h-1z M22,5h1v1h-1z M23,5h1v1h-1z M24,5h1v1h-1z M27,5h1v1h-1z M29,5h1v1h-1z M30,5h1v1h-1z M31,5h1v1h-1z M33,5h1v1h-1z M1,6h1v1h-1z M7,6h1v1h-1z M9,6h1v1h-1z M11,6h1v1h-1z M15,6h1v1h-1z M16,6h1v1h-1z M18,6h1v1h-1z M21,6h1v1h-1z M22,6h1v1h-1z M23,6h1v1h-1z M27,6h1v1h-1z M33,6h1v1h-1z M1,7h1v1h-1z M2,7h1v1h-1z M3,7h1v1h-1z M4,7h1v1h-1z M5,7h1v1h-1z M6,7h1v1h-1z M7,7h1v1h-1z M9,7h1v1h-1z M11,7h1v1h-1z M13,7h1v1h-1z M15,7h1v1h-1z M17,7h1v1h-1z M19,7h1v1h-1z M21,7h1v1h-1z M23,7h1v1h-1z M25,7h1v1h-1z M27,7h1v1h-1z M28,7h1v1h-1z M29,7h1v1h-1z M30,7h1v1h-1z M31,7h1v1h-1z M32,7h1v1h-1z M33,7h1v1h-1z M13,8h1v1h-1z M15,8h1v1h-1z M16,8h1v1h-1z M17,8h1v1h-1z M21,8h1v1h-1z M22,8h1v1h-1z M24,8h1v1h-1z M1,9h1v1h-1z M2,9h1v1h-1z M3,9h1v1h-1z M4,9h1v1h-1z M5,9h1v1h-1z M7,9h1v1h-1z M8,9h1v1h-1z M9,9h1v1h-1z M10,9h1v1h-1z M11,9h1v1h-1z M13,9h1v1h-1z M14,9h1v1h-1z M15,9h1v1h-1z M16,9h1v1h-1z M17,9h1v1h-1z M18,9h1v1h-1z M20,9h1v1h-1z M23,9h1v1h-1z M24,9h1v1h-1z M25,9h1v1h-1z M26,9h1v1h-1z M28,9h1v1h-1z M30,9h1v1h-1z M32,9h1v1h-1z M3,10h1v1h-1z M9,10h1v1h-1z M10,10h1v1h-1z M17,10h1v1h-1z M20,10h1v1h-1z M21,10h1v1h-1z M24,10h1v1h-1z M26,10h1v1h-1z M27,10h1v1h-1z M31,10h1v1h-1z M32,10h1v1h-1z M33,10h1v1h-1z M1,11h1v1h-1z M3,11h1v1h-1z M4,11h1v1h-1z M7,11h1v1h-1z M8,11h1v1h-1z M9,11h1v1h-1z M10,11h1v1h-1z M12,11h1v1h-1z M13,11h1v1h-1z M15,11h1v1h-1z M16,11h1v1h-1z M17,11h1v1h-1z M22,11h1v1h-1z M26,11h1v1h-1z M28,11h1v1h-1z M30,11h1v1h-1z M32,11h1v1h-1z M2,12h1v1h-1z M8,12h1v1h-1z M10,12h1v1h-1z M11,12h1v1h-1z M12,12h1v1h-1z M15,12h1v1h-1z M16,12h1v1h-1z M17,12h1v1h-1z M21,12h1v1h-1z M22,12h1v1h-1z M23,12h1v1h-1z M24,12h1v1h-1z M25,12h1v1h-1z M26,12h1v1h-1z M27,12h1v1h-1z M31,12h1v1h-1z M2,13h1v1h-1z M4,13h1v1h-1z M6,13h1v1h-1z M7,13h1v1h-1z M8,13h1v1h-1z M9,13h1v1h-1z M10,13h1v1h-1z M12,13h1v1h-1z M13,13h1v1h-1z M14,13h1v1h-1z M15,13h1v1h-1z M16,13h1v1h-1z M17,13h1v1h-1z M18,13h1v1h-1z M21,13h1v1h-1z M23,13h1v1h-1z M26,13h1v1h-1z M29,13h1v1h-1z M30,13h1v1h-1z M2,14h1v1h-1z M5,14h1v1h-1z M10,14h1v1h-1z M11,14h1v1h-1z M13,14h1v1h-1z M17,14h1v1h-1z M20,14h1v1h-1z M21,14h1v1h-1z M24,14h1v1h-1z M27,14h1v1h-1z M32,14h1v1h-1z M33,14h1v1h-1z M2,15h1v1h-1z M4,15h1v1h-1z M6,15h1v1h-1z M7,15h1v1h-1z M10,15h1v1h-1z M13,15h1v1h-1z M15,15h1v1h-1z M16,15h1v1h-1z M18,15h1v1h-1z M19,15h1v1h-1z M21,15h1v1h-1z M23,15h1v1h-1z M25,15h1v1h-1z M26,15h1v1h-1z M27,15h1v1h-1z M32,15h1v1h-1z M2,16h1v1h-1z M3,16h1v1h-1z M6,16h1v1h-1z M8,16h1v1h-1z M10,16h1v1h-1z M11,16h1v1h-1z M17,16h1v1h-1z M19,16h1v1h-1z M21,16h1v1h-1z M22,16h1v1h-1z M23,16h1v1h-1z M26,16h1v1h-1z M27,16h1v1h-1z M31,16h1v1h-1z M4,17h1v1h-1z M7,17h1v1h-1z M9,17h1v1h-1z M10,17h1v1h-1z M14,17h1v1h-1z M15,17h1v1h-1z M16,17h1v1h-1z M18,17h1v1h-1z M21,17h1v1h-1z M23,17h1v1h-1z M25,17h1v1h-1z M26,17h1v1h-1z M28,17h1v1h-1z M29,17h1v1h-1z M32,17h1v1h-1z M1,18h1v1h-1z M2,18h1v1h-1z M3,18h1v1h-1z M4,18h1v1h-1z M5,18h1v1h-1z M10,18h1v1h-1z M12,18h1v1h-1z M14,18h1v1h-1z M19,18h1v1h-1z M20,18h1v1h-1z M21,18h1v1h-1z M24,18h1v1h-1z M26,18h1v1h-1z M27,18h1v1h-1z M30,18h1v1h-1z M32,18h1v1h-1z M33,18h1v1h-1z M1,19h1v1h-1z M2,19h1v1h-1z M4,19h1v1h-1z M5,19h1v1h-1z M7,19h1v1h-1z M10,19h1v1h-1z M11,19h1v1h-1z M13,19h1v1h-1z M16,19h1v1h-1z M18,19h1v1h-1z M19,19h1v1h-1z M21,19h1v1h-1z M23,19h1v1h-1z M28,19h1v1h-1z M29,19h1v1h-1z M30,19h1v1h-1z M32,19h1v1h-1z M2,20h1v1h-1z M3,20h1v1h-1z M4,20h1v1h-1z M6,20h1v1h-1z M8,20h1v1h-1z M9,20h1v1h-1z M10,20h1v1h-1z M11,20h1v1h-1z M12,20h1v1h-1z M15,20h1v1h-1z M20,20h1v1h-1z M21,20h1v1h-1z M22,20h1v1h-1z M27,20h1v1h-1z M29,20h1v1h-1z M31,20h1v1h-1z M1,21h1v1h-1z M3,21h1v1h-1z M4,21h1v1h-1z M5,21h1v1h-1z M6,21h1v1h-1z M7,21h1v1h-1z M8,21h1v1h-1z M12,21h1v1h-1z M13,21h1v1h-1z M14,21h1v1h-1z M15,21h1v1h-1z M16,21h1v1h-1z M17,21h1v1h-1z M18,21h1v1h-1z M20,21h1v1h-1z M21,21h1v1h-1z M23,21h1v1h-1z M25,21h1v1h-1z M26,21h1v1h-1z M28,21h1v1h-1z M29,21h1v1h-1z M32,21h1v1h-1z M1,22h1v1h-1z M3,22h1v1h-1z M8,22h1v1h-1z M9,22h1v1h-1z M10,22h1v1h-1z M12,22h1v1h-1z M15,22h1v1h-1z M17,22h1v1h-1z M19,22h1v1h-1z M20,22h1v1h-1z M22,22h1v1h-1z M23,22h1v1h-1z M24,22h1v1h-1z M27,22h1v1h-1z M30,22h1v1h-1z M32,22h1v1h-1z M33,22h1v1h-1z M1,23h1v1h-1z M4,23h1v1h-1z M6,23h1v1h-1z M7,23h1v1h-1z M10,23h1v1h-1z M15,23h1v1h-1z M16,23h1v1h-1z M17,23h1v1h-1z M21,23h1v1h-1z M27,23h1v1h-1z M28,23h1v1h-1z M29,23h1v1h-1z M30,23h1v1h-1z M32,23h1v1h-1z M1,24h1v1h-1z M3,24h1v1h-1z M4,24h1v1h-1z M6,24h1v1h-1z M10,24h1v1h-1z M13,24h1v1h-1z M15,24h1v1h-1z M16,24h1v1h-1z M17,24h1v1h-1z M20,24h1v1h-1z M21,24h1v1h-1z M22,24h1v1h-1z M23,24h1v1h-1z M24,24h1v1h-1z M25,24h1v1h-1z M26,24h1v1h-1z M27,24h1v1h-1z M29,24h1v1h-1z M30,24h1v1h-1z M31,24h1v1h-1z M1,25h1v1h-1z M5,25h1v1h-1z M7,25h1v1h-1z M11,25h1v1h-1z M12,25h1v1h-1z M13,25h1v1h-1z M14,25h1v1h-1z M15,25h1v1h-1z M16,25h1v1h-1z M18,25h1v1h-1z M19,25h1v1h-1z M20,25h1v1h-1z M25,25h1v1h-1z M26,25h1v1h-1z M27,25h1v1h-1z M28,25h1v1h-1z M29,25h1v1h-1z M30,25h1v1h-1z M33,25h1v1h-1z M9,26h1v1h-1z M11,26h1v1h-1z M12,26h1v1h-1z M14,26h1v1h-1z M17,26h1v1h-1z M18,26h1v1h-1z M20,26h1v1h-1z M24,26h1v1h-1z M25,26h1v1h-1z M29,26h1v1h-1z M30,26h1v1h-1z M31,26h1v1h-1z M33,26h1v1h-1z M1,27h1v1h-1z M2,27h1v1h-1z M3,27h1v1h-1z M4,27h1v1h-1z M5,27h1v1h-1z M6,27h1v1h-1z M7,27h1v1h-1z M9,27h1v1h-1z M11,27h1v1h-1z M13,27h1v1h-1z M15,27h1v1h-1z M16,27h1v1h-1z M17,27h1v1h-1z M21,27h1v1h-1z M23,27h1v1h-1z M24,27h1v1h-1z M25,27h1v1h-1z M27,27h1v1h-1z M29,27h1v1h-1z M30,27h1v1h-1z M32,27h1v1h-1z M1,28h1v1h-1z M7,28h1v1h-1z M11,28h1v1h-1z M12,28h1v1h-1z M13,28h1v1h-1z M15,28h1v1h-1z M16,28h1v1h-1z M21,28h1v1h-1z M22,28h1v1h-1z M24,28h1v1h-1z M25,28h1v1h-1z M29,28h1v1h-1z M30,28h1v1h-1z M31,28h1v1h-1z M1,29h1v1h-1z M3,29h1v1h-1z M4,29h1v1h-1z M5,29h1v1h-1z M7,29h1v1h-1z M9,29h1v1h-1z M10,29h1v1h-1z M14,29h1v1h-1z M17,29h1v1h-1z M18,29h1v1h-1z M20,29h1v1h-1z M23,29h1v1h-1z M25,29h1v1h-1z M26,29h1v1h-1z M27,29h1v1h-1z M28,29h1v1h-1z M29,29h1v1h-1z M30,29h1v1h-1z M33,29h1v1h-1z M1,30h1v1h-1z M3,30h1v1h-1z M4,30h1v1h-1z M5,30h1v1h-1z M7,30h1v1h-1z M9,30h1v1h-1z M10,30h1v1h-1z M11,30h1v1h-1z M12,30h1v1h-1z M14,30h1v1h-1z M15,30h1v1h-1z M17,30h1v1h-1z M19,30h1v1h-1z M20,30h1v1h-1z M21,30h1v1h-1z M22,30h1v1h-1z M24,30h1v1h-1z M25,30h1v1h-1z M26,30h1v1h-1z M28,30h1v1h-1z M29,30h1v1h-1z M30,30h1v1h-1z M31,30h1v1h-1z M1,31h1v1h-1z M3,31h1v1h-1z M4,31h1v1h-1z M5,31h1v1h-1z M7,31h1v1h-1z M9,31h1v1h-1z M10,31h1v1h-1z M11,31h1v1h-1z M13,31h1v1h-1z M15,31h1v1h-1z M16,31h1v1h-1z M18,31h1v1h-1z M21,31h1v1h-1z M25,31h1v1h-1z M27,31h1v1h-1z M28,31h1v1h-1z M30,31h1v1h-1z M32,31h1v1h-1z M1,32h1v1h-1z M7,32h1v1h-1z M9,32h1v1h-1z M13,32h1v1h-1z M15,32h1v1h-1z M16,32h1v1h-1z M17,32h1v1h-1z M19,32h1v1h-1z M20,32h1v1h-1z M21,32h1v1h-1z M22,32h1v1h-1z M23,32h1v1h-1z M29,32h1v1h-1z M30,32h1v1h-1z M31,32h1v1h-1z M1,33h1v1h-1z M2,33h1v1h-1z M3,33h1v1h-1z M4,33h1v1h-1z M5,33h1v1h-1z M6,33h1v1h-1z M7,33h1v1h-1z M9,33h1v1h-1z M10,33h1v1h-1z M11,33h1v1h-1z M14,33h1v1h-1z M15,33h1v1h-1z M18,33h1v1h-1z M20,33h1v1h-1z M23,33h1v1h-1z M24,33h1v1h-1z M25,33h1v1h-1z M27,33h1v1h-1z M30,33h1v1h-1z M32,33h1v1h-1z" fill="#513b56"/>
</svg>
